<mxfile host="app.diagrams.net" agent="Mozilla/5.0 (X11; Linux x86_64) AppleWebKit/537.36 (KHTML, like Gecko) Chrome/133.0.0.0 Safari/537.36" version="26.0.16">
  <diagram name="Page-1" id="ho7jl5WGFvTW1Utjx4bO">
    <mxGraphModel dx="1433" dy="819" grid="1" gridSize="10" guides="1" tooltips="1" connect="1" arrows="1" fold="1" page="1" pageScale="1" pageWidth="1169" pageHeight="827" math="0" shadow="0">
      <root>
        <mxCell id="0" />
        <mxCell id="1" parent="0" />
        <mxCell id="XdNdYCajE0lqIM4SF47K-38" style="edgeStyle=orthogonalEdgeStyle;rounded=0;orthogonalLoop=1;jettySize=auto;html=1;" edge="1" parent="1" source="XdNdYCajE0lqIM4SF47K-1" target="XdNdYCajE0lqIM4SF47K-34">
          <mxGeometry relative="1" as="geometry" />
        </mxCell>
        <mxCell id="XdNdYCajE0lqIM4SF47K-39" value="&lt;font style=&quot;font-size: 15px;&quot;&gt;deploy&lt;/font&gt;" style="edgeLabel;html=1;align=center;verticalAlign=middle;resizable=0;points=[];" vertex="1" connectable="0" parent="XdNdYCajE0lqIM4SF47K-38">
          <mxGeometry x="0.1636" y="-1" relative="1" as="geometry">
            <mxPoint x="-14" y="-1" as="offset" />
          </mxGeometry>
        </mxCell>
        <mxCell id="XdNdYCajE0lqIM4SF47K-1" value="&lt;font style=&quot;color: rgb(1, 168, 141);&quot;&gt;Finetuning job&lt;/font&gt;" style="points=[[0,0],[0.25,0],[0.5,0],[0.75,0],[1,0],[1,0.25],[1,0.5],[1,0.75],[1,1],[0.75,1],[0.5,1],[0.25,1],[0,1],[0,0.75],[0,0.5],[0,0.25]];outlineConnect=0;gradientColor=none;html=1;whiteSpace=wrap;fontSize=15;fontStyle=0;container=1;pointerEvents=0;collapsible=0;recursiveResize=0;shape=mxgraph.aws4.group;grIcon=mxgraph.aws4.group_account;strokeColor=#01A88D;fillColor=none;verticalAlign=top;align=left;spacingLeft=30;fontColor=#CD2264;dashed=0;strokeWidth=3;" vertex="1" parent="1">
          <mxGeometry x="573" y="290" width="190" height="160" as="geometry" />
        </mxCell>
        <mxCell id="XdNdYCajE0lqIM4SF47K-6" value="" style="sketch=0;points=[[0,0,0],[0.25,0,0],[0.5,0,0],[0.75,0,0],[1,0,0],[0,1,0],[0.25,1,0],[0.5,1,0],[0.75,1,0],[1,1,0],[0,0.25,0],[0,0.5,0],[0,0.75,0],[1,0.25,0],[1,0.5,0],[1,0.75,0]];outlineConnect=0;fontColor=#232F3E;fillColor=#01A88D;strokeColor=#ffffff;dashed=0;verticalLabelPosition=bottom;verticalAlign=top;align=center;html=1;fontSize=12;fontStyle=0;aspect=fixed;shape=mxgraph.aws4.resourceIcon;resIcon=mxgraph.aws4.sagemaker;" vertex="1" parent="XdNdYCajE0lqIM4SF47K-1">
          <mxGeometry width="30" height="30" as="geometry" />
        </mxCell>
        <mxCell id="XdNdYCajE0lqIM4SF47K-11" value="EC2&amp;nbsp;" style="sketch=0;points=[[0,0,0],[0.25,0,0],[0.5,0,0],[0.75,0,0],[1,0,0],[0,1,0],[0.25,1,0],[0.5,1,0],[0.75,1,0],[1,1,0],[0,0.25,0],[0,0.5,0],[0,0.75,0],[1,0.25,0],[1,0.5,0],[1,0.75,0]];outlineConnect=0;fontColor=#232F3E;fillColor=#ED7100;strokeColor=#ffffff;dashed=0;verticalLabelPosition=bottom;verticalAlign=top;align=center;html=1;fontSize=15;fontStyle=0;aspect=fixed;shape=mxgraph.aws4.resourceIcon;resIcon=mxgraph.aws4.compute;" vertex="1" parent="XdNdYCajE0lqIM4SF47K-1">
          <mxGeometry x="97" y="47" width="78" height="78" as="geometry" />
        </mxCell>
        <mxCell id="XdNdYCajE0lqIM4SF47K-12" value="source" style="sketch=0;outlineConnect=0;fontColor=#232F3E;gradientColor=none;fillColor=#232F3D;strokeColor=none;dashed=0;verticalLabelPosition=bottom;verticalAlign=top;align=center;html=1;fontSize=15;fontStyle=0;aspect=fixed;pointerEvents=1;shape=mxgraph.aws4.source_code;" vertex="1" parent="XdNdYCajE0lqIM4SF47K-1">
          <mxGeometry x="17" y="47" width="57" height="78" as="geometry" />
        </mxCell>
        <mxCell id="XdNdYCajE0lqIM4SF47K-22" style="edgeStyle=orthogonalEdgeStyle;rounded=0;orthogonalLoop=1;jettySize=auto;html=1;entryX=0;entryY=0.5;entryDx=0;entryDy=0;" edge="1" parent="1" source="XdNdYCajE0lqIM4SF47K-3" target="XdNdYCajE0lqIM4SF47K-18">
          <mxGeometry relative="1" as="geometry" />
        </mxCell>
        <mxCell id="XdNdYCajE0lqIM4SF47K-23" value="&lt;font style=&quot;font-size: 15px;&quot;&gt;input data&lt;/font&gt;&lt;div&gt;&lt;font style=&quot;font-size: 15px;&quot;&gt;(images)&lt;/font&gt;&lt;/div&gt;" style="edgeLabel;html=1;align=center;verticalAlign=middle;resizable=0;points=[];" vertex="1" connectable="0" parent="XdNdYCajE0lqIM4SF47K-22">
          <mxGeometry x="0.2" y="-3" relative="1" as="geometry">
            <mxPoint x="-13" as="offset" />
          </mxGeometry>
        </mxCell>
        <mxCell id="XdNdYCajE0lqIM4SF47K-3" value="S3 repository" style="sketch=0;outlineConnect=0;fontColor=#232F3E;gradientColor=none;fillColor=#7AA116;strokeColor=none;dashed=0;verticalLabelPosition=bottom;verticalAlign=top;align=center;html=1;fontSize=15;fontStyle=0;aspect=fixed;pointerEvents=1;shape=mxgraph.aws4.bucket_with_objects;" vertex="1" parent="1">
          <mxGeometry x="53" y="331" width="75" height="78" as="geometry" />
        </mxCell>
        <mxCell id="XdNdYCajE0lqIM4SF47K-7" style="edgeStyle=orthogonalEdgeStyle;rounded=0;orthogonalLoop=1;jettySize=auto;html=1;" edge="1" parent="1" source="XdNdYCajE0lqIM4SF47K-4" target="XdNdYCajE0lqIM4SF47K-1">
          <mxGeometry relative="1" as="geometry" />
        </mxCell>
        <mxCell id="XdNdYCajE0lqIM4SF47K-10" value="&lt;font style=&quot;font-size: 15px;&quot;&gt;TF SSD&lt;/font&gt;&lt;div&gt;&lt;font style=&quot;font-size: 15px;&quot;&gt;Resnet50&lt;/font&gt;&lt;/div&gt;" style="edgeLabel;html=1;align=center;verticalAlign=middle;resizable=0;points=[];" vertex="1" connectable="0" parent="XdNdYCajE0lqIM4SF47K-7">
          <mxGeometry x="-0.0285" relative="1" as="geometry">
            <mxPoint y="-4" as="offset" />
          </mxGeometry>
        </mxCell>
        <mxCell id="XdNdYCajE0lqIM4SF47K-4" value="SM pretrained&amp;nbsp;&lt;div&gt;models containers&lt;/div&gt;" style="sketch=0;points=[[0,0,0],[0.25,0,0],[0.5,0,0],[0.75,0,0],[1,0,0],[0,1,0],[0.25,1,0],[0.5,1,0],[0.75,1,0],[1,1,0],[0,0.25,0],[0,0.5,0],[0,0.75,0],[1,0.25,0],[1,0.5,0],[1,0.75,0]];outlineConnect=0;fontColor=#232F3E;fillColor=#01A88D;strokeColor=#ffffff;dashed=0;verticalLabelPosition=top;verticalAlign=bottom;align=center;html=1;fontSize=15;fontStyle=0;aspect=fixed;shape=mxgraph.aws4.resourceIcon;resIcon=mxgraph.aws4.deep_learning_containers;labelPosition=center;" vertex="1" parent="1">
          <mxGeometry x="629" y="137" width="78" height="78" as="geometry" />
        </mxCell>
        <mxCell id="XdNdYCajE0lqIM4SF47K-14" style="edgeStyle=orthogonalEdgeStyle;rounded=0;orthogonalLoop=1;jettySize=auto;html=1;entryX=0.5;entryY=1;entryDx=0;entryDy=0;" edge="1" parent="1" source="XdNdYCajE0lqIM4SF47K-13" target="XdNdYCajE0lqIM4SF47K-1">
          <mxGeometry relative="1" as="geometry" />
        </mxCell>
        <mxCell id="XdNdYCajE0lqIM4SF47K-17" value="&lt;font style=&quot;font-size: 15px;&quot;&gt;finetuning source&lt;/font&gt;&lt;div&gt;&lt;font style=&quot;font-size: 15px;&quot;&gt;for the selected&lt;/font&gt;&lt;/div&gt;&lt;div&gt;&lt;font style=&quot;font-size: 15px;&quot;&gt;model&lt;/font&gt;&lt;/div&gt;" style="edgeLabel;html=1;align=center;verticalAlign=middle;resizable=0;points=[];" vertex="1" connectable="0" parent="XdNdYCajE0lqIM4SF47K-14">
          <mxGeometry x="-0.1" y="2" relative="1" as="geometry">
            <mxPoint as="offset" />
          </mxGeometry>
        </mxCell>
        <mxCell id="XdNdYCajE0lqIM4SF47K-45" style="edgeStyle=orthogonalEdgeStyle;rounded=0;orthogonalLoop=1;jettySize=auto;html=1;entryX=0.5;entryY=1;entryDx=0;entryDy=0;" edge="1" parent="1" source="XdNdYCajE0lqIM4SF47K-13" target="XdNdYCajE0lqIM4SF47K-34">
          <mxGeometry relative="1" as="geometry" />
        </mxCell>
        <mxCell id="XdNdYCajE0lqIM4SF47K-47" value="&lt;font style=&quot;font-size: 15px;&quot;&gt;inference source&lt;/font&gt;&lt;div&gt;&lt;font style=&quot;font-size: 15px;&quot;&gt;for the selected&lt;/font&gt;&lt;/div&gt;&lt;div&gt;&lt;font style=&quot;font-size: 15px;&quot;&gt;model&lt;/font&gt;&lt;/div&gt;" style="edgeLabel;html=1;align=center;verticalAlign=middle;resizable=0;points=[];" vertex="1" connectable="0" parent="XdNdYCajE0lqIM4SF47K-45">
          <mxGeometry x="-0.1737" y="-3" relative="1" as="geometry">
            <mxPoint as="offset" />
          </mxGeometry>
        </mxCell>
        <mxCell id="XdNdYCajE0lqIM4SF47K-13" value="S3 SM pretrained&lt;div&gt;&lt;span style=&quot;background-color: transparent; color: light-dark(rgb(35, 47, 62), rgb(189, 199, 212));&quot;&gt;models&amp;nbsp;&lt;/span&gt;&lt;span style=&quot;background-color: transparent; color: light-dark(rgb(35, 47, 62), rgb(189, 199, 212));&quot;&gt;source&lt;/span&gt;&lt;/div&gt;" style="sketch=0;outlineConnect=0;fontColor=#232F3E;gradientColor=none;fillColor=#7AA116;strokeColor=none;dashed=0;verticalLabelPosition=bottom;verticalAlign=top;align=center;html=1;fontSize=12;fontStyle=0;aspect=fixed;pointerEvents=1;shape=mxgraph.aws4.bucket;" vertex="1" parent="1">
          <mxGeometry x="630.5" y="545" width="75" height="78" as="geometry" />
        </mxCell>
        <mxCell id="XdNdYCajE0lqIM4SF47K-15" style="edgeStyle=orthogonalEdgeStyle;rounded=0;orthogonalLoop=1;jettySize=auto;html=1;exitX=0.75;exitY=0;exitDx=0;exitDy=0;exitPerimeter=0;" edge="1" parent="1" source="XdNdYCajE0lqIM4SF47K-6" target="XdNdYCajE0lqIM4SF47K-3">
          <mxGeometry relative="1" as="geometry">
            <mxPoint x="603" y="260" as="sourcePoint" />
            <Array as="points">
              <mxPoint x="601" y="260" />
              <mxPoint x="601" y="260" />
              <mxPoint x="601" y="200" />
              <mxPoint x="91" y="200" />
            </Array>
          </mxGeometry>
        </mxCell>
        <mxCell id="XdNdYCajE0lqIM4SF47K-16" value="&lt;font style=&quot;font-size: 15px;&quot;&gt;job outputs&lt;/font&gt;&lt;div&gt;&lt;font style=&quot;font-size: 15px;&quot;&gt;and metadata&lt;/font&gt;&lt;/div&gt;" style="edgeLabel;html=1;align=center;verticalAlign=middle;resizable=0;points=[];" vertex="1" connectable="0" parent="XdNdYCajE0lqIM4SF47K-15">
          <mxGeometry x="-0.2088" y="2" relative="1" as="geometry">
            <mxPoint as="offset" />
          </mxGeometry>
        </mxCell>
        <mxCell id="XdNdYCajE0lqIM4SF47K-24" style="edgeStyle=orthogonalEdgeStyle;rounded=0;orthogonalLoop=1;jettySize=auto;html=1;" edge="1" parent="1" source="XdNdYCajE0lqIM4SF47K-18" target="XdNdYCajE0lqIM4SF47K-1">
          <mxGeometry relative="1" as="geometry" />
        </mxCell>
        <mxCell id="XdNdYCajE0lqIM4SF47K-27" value="&lt;font style=&quot;font-size: 15px;&quot;&gt;processed&lt;/font&gt;&lt;div&gt;&lt;font style=&quot;font-size: 15px;&quot;&gt;input&lt;/font&gt;&lt;/div&gt;" style="edgeLabel;html=1;align=center;verticalAlign=middle;resizable=0;points=[];" vertex="1" connectable="0" parent="XdNdYCajE0lqIM4SF47K-24">
          <mxGeometry x="0.0625" y="-2" relative="1" as="geometry">
            <mxPoint x="-10" as="offset" />
          </mxGeometry>
        </mxCell>
        <mxCell id="XdNdYCajE0lqIM4SF47K-18" value="&lt;font style=&quot;color: rgb(1, 168, 141);&quot;&gt;Data processing job&lt;/font&gt;" style="points=[[0,0],[0.25,0],[0.5,0],[0.75,0],[1,0],[1,0.25],[1,0.5],[1,0.75],[1,1],[0.75,1],[0.5,1],[0.25,1],[0,1],[0,0.75],[0,0.5],[0,0.25]];outlineConnect=0;gradientColor=none;html=1;whiteSpace=wrap;fontSize=15;fontStyle=0;container=1;pointerEvents=0;collapsible=0;recursiveResize=0;shape=mxgraph.aws4.group;grIcon=mxgraph.aws4.group_account;strokeColor=#01A88D;fillColor=none;verticalAlign=top;align=left;spacingLeft=30;fontColor=#CD2264;dashed=0;strokeWidth=3;" vertex="1" parent="1">
          <mxGeometry x="263" y="290" width="190" height="160" as="geometry" />
        </mxCell>
        <mxCell id="XdNdYCajE0lqIM4SF47K-19" value="" style="sketch=0;points=[[0,0,0],[0.25,0,0],[0.5,0,0],[0.75,0,0],[1,0,0],[0,1,0],[0.25,1,0],[0.5,1,0],[0.75,1,0],[1,1,0],[0,0.25,0],[0,0.5,0],[0,0.75,0],[1,0.25,0],[1,0.5,0],[1,0.75,0]];outlineConnect=0;fontColor=#232F3E;fillColor=#01A88D;strokeColor=#ffffff;dashed=0;verticalLabelPosition=bottom;verticalAlign=top;align=center;html=1;fontSize=12;fontStyle=0;aspect=fixed;shape=mxgraph.aws4.resourceIcon;resIcon=mxgraph.aws4.sagemaker;" vertex="1" parent="XdNdYCajE0lqIM4SF47K-18">
          <mxGeometry width="30" height="30" as="geometry" />
        </mxCell>
        <mxCell id="XdNdYCajE0lqIM4SF47K-20" value="EC2&amp;nbsp;" style="sketch=0;points=[[0,0,0],[0.25,0,0],[0.5,0,0],[0.75,0,0],[1,0,0],[0,1,0],[0.25,1,0],[0.5,1,0],[0.75,1,0],[1,1,0],[0,0.25,0],[0,0.5,0],[0,0.75,0],[1,0.25,0],[1,0.5,0],[1,0.75,0]];outlineConnect=0;fontColor=#232F3E;fillColor=#ED7100;strokeColor=#ffffff;dashed=0;verticalLabelPosition=bottom;verticalAlign=top;align=center;html=1;fontSize=15;fontStyle=0;aspect=fixed;shape=mxgraph.aws4.resourceIcon;resIcon=mxgraph.aws4.compute;" vertex="1" parent="XdNdYCajE0lqIM4SF47K-18">
          <mxGeometry x="97" y="47" width="78" height="78" as="geometry" />
        </mxCell>
        <mxCell id="XdNdYCajE0lqIM4SF47K-21" value="source" style="sketch=0;outlineConnect=0;fontColor=#232F3E;gradientColor=none;fillColor=#232F3D;strokeColor=none;dashed=0;verticalLabelPosition=bottom;verticalAlign=top;align=center;html=1;fontSize=15;fontStyle=0;aspect=fixed;pointerEvents=1;shape=mxgraph.aws4.source_code;" vertex="1" parent="XdNdYCajE0lqIM4SF47K-18">
          <mxGeometry x="17" y="47" width="57" height="78" as="geometry" />
        </mxCell>
        <mxCell id="XdNdYCajE0lqIM4SF47K-32" style="edgeStyle=orthogonalEdgeStyle;rounded=0;orthogonalLoop=1;jettySize=auto;html=1;exitX=0;exitY=0.25;exitDx=0;exitDy=0;" edge="1" parent="1" target="XdNdYCajE0lqIM4SF47K-3">
          <mxGeometry relative="1" as="geometry">
            <mxPoint x="133" y="290" as="targetPoint" />
            <mxPoint x="263" y="310" as="sourcePoint" />
            <Array as="points">
              <mxPoint x="263" y="311" />
              <mxPoint x="113" y="311" />
            </Array>
          </mxGeometry>
        </mxCell>
        <mxCell id="XdNdYCajE0lqIM4SF47K-33" value="&lt;font style=&quot;font-size: 15px;&quot;&gt;job outputs&lt;/font&gt;&lt;div&gt;&lt;font style=&quot;font-size: 15px;&quot;&gt;and metadata&lt;/font&gt;&lt;/div&gt;" style="edgeLabel;html=1;align=center;verticalAlign=middle;resizable=0;points=[];" vertex="1" connectable="0" parent="XdNdYCajE0lqIM4SF47K-32">
          <mxGeometry x="-0.4152" y="-2" relative="1" as="geometry">
            <mxPoint x="-21" y="1" as="offset" />
          </mxGeometry>
        </mxCell>
        <mxCell id="XdNdYCajE0lqIM4SF47K-52" style="edgeStyle=orthogonalEdgeStyle;rounded=0;orthogonalLoop=1;jettySize=auto;html=1;" edge="1" parent="1" source="XdNdYCajE0lqIM4SF47K-34" target="XdNdYCajE0lqIM4SF47K-48">
          <mxGeometry relative="1" as="geometry">
            <Array as="points">
              <mxPoint x="920" y="149" />
            </Array>
          </mxGeometry>
        </mxCell>
        <mxCell id="XdNdYCajE0lqIM4SF47K-53" value="&lt;font style=&quot;font-size: 15px;&quot;&gt;class&lt;/font&gt;&lt;div&gt;&lt;font style=&quot;font-size: 15px;&quot;&gt;prediction&lt;/font&gt;&lt;/div&gt;&lt;div&gt;&lt;span style=&quot;background-color: light-dark(#ffffff, var(--ge-dark-color, #121212)); color: light-dark(rgb(0, 0, 0), rgb(255, 255, 255));&quot;&gt;&lt;font style=&quot;font-size: 15px;&quot;&gt;and bounding&lt;/font&gt;&lt;/span&gt;&lt;/div&gt;&lt;div&gt;&lt;font style=&quot;font-size: 15px;&quot;&gt;box&lt;/font&gt;&lt;/div&gt;" style="edgeLabel;html=1;align=center;verticalAlign=middle;resizable=0;points=[];" vertex="1" connectable="0" parent="XdNdYCajE0lqIM4SF47K-52">
          <mxGeometry x="-0.0701" relative="1" as="geometry">
            <mxPoint y="20" as="offset" />
          </mxGeometry>
        </mxCell>
        <mxCell id="XdNdYCajE0lqIM4SF47K-34" value="&lt;font color=&quot;#01a88d&quot;&gt;Endpoint&lt;/font&gt;" style="points=[[0,0],[0.25,0],[0.5,0],[0.75,0],[1,0],[1,0.25],[1,0.5],[1,0.75],[1,1],[0.75,1],[0.5,1],[0.25,1],[0,1],[0,0.75],[0,0.5],[0,0.25]];outlineConnect=0;gradientColor=none;html=1;whiteSpace=wrap;fontSize=15;fontStyle=0;container=1;pointerEvents=0;collapsible=0;recursiveResize=0;shape=mxgraph.aws4.group;grIcon=mxgraph.aws4.group_account;strokeColor=#01A88D;fillColor=none;verticalAlign=top;align=left;spacingLeft=30;fontColor=#CD2264;dashed=0;strokeWidth=3;" vertex="1" parent="1">
          <mxGeometry x="856" y="290" width="261" height="160" as="geometry" />
        </mxCell>
        <mxCell id="XdNdYCajE0lqIM4SF47K-35" value="" style="sketch=0;points=[[0,0,0],[0.25,0,0],[0.5,0,0],[0.75,0,0],[1,0,0],[0,1,0],[0.25,1,0],[0.5,1,0],[0.75,1,0],[1,1,0],[0,0.25,0],[0,0.5,0],[0,0.75,0],[1,0.25,0],[1,0.5,0],[1,0.75,0]];outlineConnect=0;fontColor=#232F3E;fillColor=#01A88D;strokeColor=#ffffff;dashed=0;verticalLabelPosition=bottom;verticalAlign=top;align=center;html=1;fontSize=12;fontStyle=0;aspect=fixed;shape=mxgraph.aws4.resourceIcon;resIcon=mxgraph.aws4.sagemaker;" vertex="1" parent="XdNdYCajE0lqIM4SF47K-34">
          <mxGeometry width="30" height="30" as="geometry" />
        </mxCell>
        <mxCell id="XdNdYCajE0lqIM4SF47K-36" value="EC2&amp;nbsp;" style="sketch=0;points=[[0,0,0],[0.25,0,0],[0.5,0,0],[0.75,0,0],[1,0,0],[0,1,0],[0.25,1,0],[0.5,1,0],[0.75,1,0],[1,1,0],[0,0.25,0],[0,0.5,0],[0,0.75,0],[1,0.25,0],[1,0.5,0],[1,0.75,0]];outlineConnect=0;fontColor=#232F3E;fillColor=#ED7100;strokeColor=#ffffff;dashed=0;verticalLabelPosition=bottom;verticalAlign=top;align=center;html=1;fontSize=15;fontStyle=0;aspect=fixed;shape=mxgraph.aws4.resourceIcon;resIcon=mxgraph.aws4.compute;" vertex="1" parent="XdNdYCajE0lqIM4SF47K-34">
          <mxGeometry x="173" y="47" width="73" height="73" as="geometry" />
        </mxCell>
        <mxCell id="XdNdYCajE0lqIM4SF47K-40" value="Finetuned&lt;div&gt;model&lt;/div&gt;" style="sketch=0;points=[[0,0,0],[0.25,0,0],[0.5,0,0],[0.75,0,0],[1,0,0],[0,1,0],[0.25,1,0],[0.5,1,0],[0.75,1,0],[1,1,0],[0,0.25,0],[0,0.5,0],[0,0.75,0],[1,0.25,0],[1,0.5,0],[1,0.75,0]];outlineConnect=0;fontColor=#232F3E;fillColor=#01A88D;strokeColor=#ffffff;dashed=0;verticalLabelPosition=bottom;verticalAlign=top;align=center;html=1;fontSize=12;fontStyle=0;aspect=fixed;shape=mxgraph.aws4.resourceIcon;resIcon=mxgraph.aws4.sagemaker;" vertex="1" parent="XdNdYCajE0lqIM4SF47K-34">
          <mxGeometry x="86" y="47" width="73" height="73" as="geometry" />
        </mxCell>
        <mxCell id="XdNdYCajE0lqIM4SF47K-46" value="source" style="sketch=0;outlineConnect=0;fontColor=#232F3E;gradientColor=none;fillColor=#232F3D;strokeColor=none;dashed=0;verticalLabelPosition=bottom;verticalAlign=top;align=center;html=1;fontSize=15;fontStyle=0;aspect=fixed;pointerEvents=1;shape=mxgraph.aws4.source_code;" vertex="1" parent="XdNdYCajE0lqIM4SF47K-34">
          <mxGeometry x="18" y="47" width="53.35" height="73" as="geometry" />
        </mxCell>
        <mxCell id="XdNdYCajE0lqIM4SF47K-50" style="edgeStyle=orthogonalEdgeStyle;rounded=0;orthogonalLoop=1;jettySize=auto;html=1;entryX=0.5;entryY=0;entryDx=0;entryDy=0;" edge="1" parent="1" source="XdNdYCajE0lqIM4SF47K-48" target="XdNdYCajE0lqIM4SF47K-49">
          <mxGeometry relative="1" as="geometry" />
        </mxCell>
        <mxCell id="XdNdYCajE0lqIM4SF47K-48" value="" style="sketch=0;outlineConnect=0;fontColor=#232F3E;gradientColor=none;fillColor=#232F3D;strokeColor=none;dashed=0;verticalLabelPosition=bottom;verticalAlign=top;align=center;html=1;fontSize=12;fontStyle=0;aspect=fixed;pointerEvents=1;shape=mxgraph.aws4.user;" vertex="1" parent="1">
          <mxGeometry x="947.5" y="110" width="78" height="78" as="geometry" />
        </mxCell>
        <mxCell id="XdNdYCajE0lqIM4SF47K-51" style="edgeStyle=orthogonalEdgeStyle;rounded=0;orthogonalLoop=1;jettySize=auto;html=1;exitX=0.5;exitY=1;exitDx=0;exitDy=0;" edge="1" parent="1" source="XdNdYCajE0lqIM4SF47K-49">
          <mxGeometry relative="1" as="geometry">
            <mxPoint x="1047" y="266" as="sourcePoint" />
            <mxPoint x="1047" y="288" as="targetPoint" />
            <Array as="points" />
          </mxGeometry>
        </mxCell>
        <mxCell id="XdNdYCajE0lqIM4SF47K-49" value="&lt;font style=&quot;font-size: 15px;&quot;&gt;input&lt;/font&gt;&lt;div&gt;&lt;font style=&quot;font-size: 15px;&quot;&gt;image&lt;/font&gt;&lt;/div&gt;" style="shape=image;html=1;verticalAlign=middle;verticalLabelPosition=middle;labelBackgroundColor=#ffffff;imageAspect=0;aspect=fixed;image=https://cdn3.iconfinder.com/data/icons/essential-pack-2/48/10-Image_File-128.png;labelPosition=right;align=left;" vertex="1" parent="1">
          <mxGeometry x="1025.5" y="215" width="43" height="43" as="geometry" />
        </mxCell>
      </root>
    </mxGraphModel>
  </diagram>
</mxfile>
